<mxfile host="app.diagrams.net" modified="2021-10-21T11:15:26.262Z" agent="5.0 (Windows NT 10.0; Win64; x64) AppleWebKit/537.36 (KHTML, like Gecko) Chrome/94.0.4606.81 Safari/537.36" etag="9Rq9OMjn_agw74S5MMKr" version="15.5.6" type="github">
  <diagram id="dJrjSMjwjFoepgSSJFIQ" name="Page-1">
    <mxGraphModel dx="1422" dy="762" grid="1" gridSize="10" guides="1" tooltips="1" connect="1" arrows="1" fold="1" page="1" pageScale="1" pageWidth="1169" pageHeight="827" math="0" shadow="0">
      <root>
        <mxCell id="0" />
        <mxCell id="1" parent="0" />
        <mxCell id="l0b-sQyUAo9crAttn33O-1" value="IB CS Internal Assessment - Inventory System - Finn Lestrange" style="rounded=1;whiteSpace=wrap;html=1;" vertex="1" parent="1">
          <mxGeometry x="760" y="760" width="390" height="40" as="geometry" />
        </mxCell>
        <mxCell id="l0b-sQyUAo9crAttn33O-4" style="edgeStyle=orthogonalEdgeStyle;rounded=0;orthogonalLoop=1;jettySize=auto;html=1;exitX=0.5;exitY=1;exitDx=0;exitDy=0;exitPerimeter=0;entryX=0.5;entryY=0;entryDx=0;entryDy=0;fontSize=12;" edge="1" parent="1" source="l0b-sQyUAo9crAttn33O-2" target="l0b-sQyUAo9crAttn33O-3">
          <mxGeometry relative="1" as="geometry" />
        </mxCell>
        <mxCell id="l0b-sQyUAo9crAttn33O-2" value="Start" style="strokeWidth=2;html=1;shape=mxgraph.flowchart.terminator;whiteSpace=wrap;" vertex="1" parent="1">
          <mxGeometry x="535" y="10" width="100" height="60" as="geometry" />
        </mxCell>
        <mxCell id="l0b-sQyUAo9crAttn33O-33" style="edgeStyle=orthogonalEdgeStyle;rounded=0;orthogonalLoop=1;jettySize=auto;html=1;exitX=0.5;exitY=1;exitDx=0;exitDy=0;entryX=0.5;entryY=0;entryDx=0;entryDy=0;fontSize=12;" edge="1" parent="1" source="l0b-sQyUAo9crAttn33O-3" target="l0b-sQyUAo9crAttn33O-32">
          <mxGeometry relative="1" as="geometry" />
        </mxCell>
        <mxCell id="l0b-sQyUAo9crAttn33O-3" value="&lt;font style=&quot;font-size: 12px&quot;&gt;Inventory loaded from server based on &lt;br&gt;authenticated user&amp;nbsp;&lt;/font&gt;" style="shape=parallelogram;html=1;strokeWidth=2;perimeter=parallelogramPerimeter;whiteSpace=wrap;rounded=1;arcSize=12;size=0.23;" vertex="1" parent="1">
          <mxGeometry x="510" y="100" width="150" height="80" as="geometry" />
        </mxCell>
        <mxCell id="l0b-sQyUAo9crAttn33O-12" style="edgeStyle=orthogonalEdgeStyle;rounded=0;orthogonalLoop=1;jettySize=auto;html=1;exitX=0;exitY=0.5;exitDx=0;exitDy=0;exitPerimeter=0;entryX=1;entryY=0.5;entryDx=0;entryDy=0;fontSize=12;" edge="1" parent="1" source="l0b-sQyUAo9crAttn33O-5" target="l0b-sQyUAo9crAttn33O-11">
          <mxGeometry relative="1" as="geometry" />
        </mxCell>
        <mxCell id="l0b-sQyUAo9crAttn33O-13" value="Add" style="edgeLabel;html=1;align=center;verticalAlign=middle;resizable=0;points=[];fontSize=12;" vertex="1" connectable="0" parent="l0b-sQyUAo9crAttn33O-12">
          <mxGeometry x="0.1895" y="-1" relative="1" as="geometry">
            <mxPoint as="offset" />
          </mxGeometry>
        </mxCell>
        <mxCell id="l0b-sQyUAo9crAttn33O-21" style="edgeStyle=orthogonalEdgeStyle;rounded=0;orthogonalLoop=1;jettySize=auto;html=1;exitX=0.5;exitY=1;exitDx=0;exitDy=0;exitPerimeter=0;entryX=0.5;entryY=0;entryDx=0;entryDy=0;entryPerimeter=0;fontSize=12;" edge="1" parent="1" source="l0b-sQyUAo9crAttn33O-5" target="l0b-sQyUAo9crAttn33O-20">
          <mxGeometry relative="1" as="geometry" />
        </mxCell>
        <mxCell id="l0b-sQyUAo9crAttn33O-22" value="Remove" style="edgeLabel;html=1;align=center;verticalAlign=middle;resizable=0;points=[];fontSize=12;" vertex="1" connectable="0" parent="l0b-sQyUAo9crAttn33O-21">
          <mxGeometry x="-0.3208" y="2" relative="1" as="geometry">
            <mxPoint as="offset" />
          </mxGeometry>
        </mxCell>
        <mxCell id="l0b-sQyUAo9crAttn33O-5" value="Add / Remove Plant" style="strokeWidth=2;html=1;shape=mxgraph.flowchart.decision;whiteSpace=wrap;fontSize=12;" vertex="1" parent="1">
          <mxGeometry x="400" y="374" width="100" height="100" as="geometry" />
        </mxCell>
        <mxCell id="l0b-sQyUAo9crAttn33O-8" style="edgeStyle=orthogonalEdgeStyle;rounded=0;orthogonalLoop=1;jettySize=auto;html=1;exitX=0;exitY=0.5;exitDx=0;exitDy=0;entryX=0.5;entryY=0;entryDx=0;entryDy=0;entryPerimeter=0;fontSize=12;" edge="1" parent="1" source="l0b-sQyUAo9crAttn33O-6" target="l0b-sQyUAo9crAttn33O-5">
          <mxGeometry relative="1" as="geometry" />
        </mxCell>
        <mxCell id="l0b-sQyUAo9crAttn33O-10" style="edgeStyle=orthogonalEdgeStyle;rounded=0;orthogonalLoop=1;jettySize=auto;html=1;exitX=1;exitY=0.5;exitDx=0;exitDy=0;entryX=0.5;entryY=0;entryDx=0;entryDy=0;entryPerimeter=0;fontSize=12;" edge="1" parent="1" source="l0b-sQyUAo9crAttn33O-6" target="l0b-sQyUAo9crAttn33O-9">
          <mxGeometry relative="1" as="geometry" />
        </mxCell>
        <mxCell id="l0b-sQyUAo9crAttn33O-6" value="Menu&lt;br&gt;Displayed" style="shape=parallelogram;html=1;strokeWidth=2;perimeter=parallelogramPerimeter;whiteSpace=wrap;rounded=1;arcSize=12;size=0.23;fontSize=12;" vertex="1" parent="1">
          <mxGeometry x="535" y="300" width="100" height="60" as="geometry" />
        </mxCell>
        <mxCell id="l0b-sQyUAo9crAttn33O-30" style="edgeStyle=orthogonalEdgeStyle;rounded=0;orthogonalLoop=1;jettySize=auto;html=1;exitX=1;exitY=0.5;exitDx=0;exitDy=0;exitPerimeter=0;entryX=0;entryY=0.5;entryDx=0;entryDy=0;fontSize=12;" edge="1" parent="1" source="l0b-sQyUAo9crAttn33O-9" target="l0b-sQyUAo9crAttn33O-29">
          <mxGeometry relative="1" as="geometry" />
        </mxCell>
        <mxCell id="l0b-sQyUAo9crAttn33O-31" value="Edit" style="edgeLabel;html=1;align=center;verticalAlign=middle;resizable=0;points=[];fontSize=12;" vertex="1" connectable="0" parent="l0b-sQyUAo9crAttn33O-30">
          <mxGeometry x="0.2444" y="-1" relative="1" as="geometry">
            <mxPoint x="-14" y="-1" as="offset" />
          </mxGeometry>
        </mxCell>
        <mxCell id="l0b-sQyUAo9crAttn33O-45" style="edgeStyle=orthogonalEdgeStyle;rounded=0;orthogonalLoop=1;jettySize=auto;html=1;exitX=0.5;exitY=1;exitDx=0;exitDy=0;exitPerimeter=0;entryX=0.5;entryY=0;entryDx=0;entryDy=0;fontSize=12;" edge="1" parent="1" source="l0b-sQyUAo9crAttn33O-9" target="l0b-sQyUAo9crAttn33O-44">
          <mxGeometry relative="1" as="geometry" />
        </mxCell>
        <mxCell id="l0b-sQyUAo9crAttn33O-9" value="View / Edit &lt;br&gt;Plant" style="strokeWidth=2;html=1;shape=mxgraph.flowchart.decision;whiteSpace=wrap;fontSize=12;" vertex="1" parent="1">
          <mxGeometry x="670" y="374" width="100" height="100" as="geometry" />
        </mxCell>
        <mxCell id="l0b-sQyUAo9crAttn33O-17" style="edgeStyle=orthogonalEdgeStyle;rounded=0;orthogonalLoop=1;jettySize=auto;html=1;exitX=0.5;exitY=1;exitDx=0;exitDy=0;entryX=0.5;entryY=0;entryDx=0;entryDy=0;fontSize=12;" edge="1" parent="1" source="l0b-sQyUAo9crAttn33O-11" target="l0b-sQyUAo9crAttn33O-16">
          <mxGeometry relative="1" as="geometry" />
        </mxCell>
        <mxCell id="l0b-sQyUAo9crAttn33O-11" value="Popup to enter information and upload an image of the plant appears" style="rounded=1;whiteSpace=wrap;html=1;absoluteArcSize=1;arcSize=14;strokeWidth=2;fontSize=12;" vertex="1" parent="1">
          <mxGeometry x="110" y="374" width="100" height="100" as="geometry" />
        </mxCell>
        <mxCell id="l0b-sQyUAo9crAttn33O-18" style="edgeStyle=orthogonalEdgeStyle;rounded=0;orthogonalLoop=1;jettySize=auto;html=1;exitX=0;exitY=0.5;exitDx=0;exitDy=0;entryX=0;entryY=0.5;entryDx=0;entryDy=0;fontSize=12;" edge="1" parent="1" source="l0b-sQyUAo9crAttn33O-16" target="l0b-sQyUAo9crAttn33O-3">
          <mxGeometry relative="1" as="geometry">
            <Array as="points">
              <mxPoint x="70" y="550" />
              <mxPoint x="70" y="140" />
            </Array>
          </mxGeometry>
        </mxCell>
        <mxCell id="l0b-sQyUAo9crAttn33O-16" value="New inventory &lt;br&gt;data sent to server&amp;nbsp;" style="shape=parallelogram;html=1;strokeWidth=2;perimeter=parallelogramPerimeter;whiteSpace=wrap;rounded=1;arcSize=12;size=0.23;fontSize=12;" vertex="1" parent="1">
          <mxGeometry x="90" y="520" width="140" height="60" as="geometry" />
        </mxCell>
        <mxCell id="l0b-sQyUAo9crAttn33O-24" style="edgeStyle=orthogonalEdgeStyle;rounded=0;orthogonalLoop=1;jettySize=auto;html=1;exitX=0;exitY=0.5;exitDx=0;exitDy=0;exitPerimeter=0;entryX=1;entryY=0.5;entryDx=0;entryDy=0;fontSize=12;" edge="1" parent="1" source="l0b-sQyUAo9crAttn33O-20" target="l0b-sQyUAo9crAttn33O-23">
          <mxGeometry relative="1" as="geometry" />
        </mxCell>
        <mxCell id="l0b-sQyUAo9crAttn33O-26" value="Yes" style="edgeLabel;html=1;align=center;verticalAlign=middle;resizable=0;points=[];fontSize=12;" vertex="1" connectable="0" parent="l0b-sQyUAo9crAttn33O-24">
          <mxGeometry x="0.1868" y="2" relative="1" as="geometry">
            <mxPoint y="-2" as="offset" />
          </mxGeometry>
        </mxCell>
        <mxCell id="l0b-sQyUAo9crAttn33O-27" style="edgeStyle=orthogonalEdgeStyle;rounded=0;orthogonalLoop=1;jettySize=auto;html=1;entryX=0.5;entryY=1;entryDx=0;entryDy=0;fontSize=12;" edge="1" parent="1" source="l0b-sQyUAo9crAttn33O-20" target="l0b-sQyUAo9crAttn33O-6">
          <mxGeometry relative="1" as="geometry" />
        </mxCell>
        <mxCell id="l0b-sQyUAo9crAttn33O-28" value="No" style="edgeLabel;html=1;align=center;verticalAlign=middle;resizable=0;points=[];fontSize=12;" vertex="1" connectable="0" parent="l0b-sQyUAo9crAttn33O-27">
          <mxGeometry x="-0.7014" relative="1" as="geometry">
            <mxPoint as="offset" />
          </mxGeometry>
        </mxCell>
        <mxCell id="l0b-sQyUAo9crAttn33O-20" value="&lt;span&gt;Confirmation message to &lt;br&gt;remove plant&lt;/span&gt;" style="strokeWidth=2;html=1;shape=mxgraph.flowchart.decision;whiteSpace=wrap;fontSize=12;" vertex="1" parent="1">
          <mxGeometry x="395" y="580" width="110" height="110" as="geometry" />
        </mxCell>
        <mxCell id="l0b-sQyUAo9crAttn33O-25" style="edgeStyle=orthogonalEdgeStyle;rounded=0;orthogonalLoop=1;jettySize=auto;html=1;exitX=0;exitY=0.5;exitDx=0;exitDy=0;fontSize=12;entryX=0;entryY=0.5;entryDx=0;entryDy=0;" edge="1" parent="1" source="l0b-sQyUAo9crAttn33O-23" target="l0b-sQyUAo9crAttn33O-3">
          <mxGeometry relative="1" as="geometry">
            <mxPoint x="70" y="490" as="targetPoint" />
            <Array as="points">
              <mxPoint x="60" y="635" />
              <mxPoint x="60" y="130" />
              <mxPoint x="527" y="130" />
            </Array>
          </mxGeometry>
        </mxCell>
        <mxCell id="l0b-sQyUAo9crAttn33O-23" value="Data deleted &lt;br&gt;on server" style="shape=parallelogram;html=1;strokeWidth=2;perimeter=parallelogramPerimeter;whiteSpace=wrap;rounded=1;arcSize=12;size=0.23;fontSize=12;" vertex="1" parent="1">
          <mxGeometry x="210" y="605" width="100" height="60" as="geometry" />
        </mxCell>
        <mxCell id="l0b-sQyUAo9crAttn33O-40" style="edgeStyle=orthogonalEdgeStyle;rounded=0;orthogonalLoop=1;jettySize=auto;html=1;exitX=0.5;exitY=1;exitDx=0;exitDy=0;entryX=0.5;entryY=0;entryDx=0;entryDy=0;entryPerimeter=0;fontSize=12;" edge="1" parent="1" source="l0b-sQyUAo9crAttn33O-29" target="l0b-sQyUAo9crAttn33O-35">
          <mxGeometry relative="1" as="geometry" />
        </mxCell>
        <mxCell id="l0b-sQyUAo9crAttn33O-29" value="Popup with editable details about plant" style="rounded=1;whiteSpace=wrap;html=1;absoluteArcSize=1;arcSize=14;strokeWidth=2;fontSize=12;" vertex="1" parent="1">
          <mxGeometry x="905" y="374" width="100" height="100" as="geometry" />
        </mxCell>
        <mxCell id="l0b-sQyUAo9crAttn33O-34" style="edgeStyle=orthogonalEdgeStyle;rounded=0;orthogonalLoop=1;jettySize=auto;html=1;exitX=0.5;exitY=1;exitDx=0;exitDy=0;entryX=0.5;entryY=0;entryDx=0;entryDy=0;fontSize=12;" edge="1" parent="1" source="l0b-sQyUAo9crAttn33O-32" target="l0b-sQyUAo9crAttn33O-6">
          <mxGeometry relative="1" as="geometry" />
        </mxCell>
        <mxCell id="l0b-sQyUAo9crAttn33O-32" value="Server data rendered to DOM" style="verticalLabelPosition=middle;verticalAlign=middle;html=1;shape=process;whiteSpace=wrap;rounded=1;size=0.14;arcSize=6;fontSize=12;labelPosition=center;align=center;" vertex="1" parent="1">
          <mxGeometry x="535" y="210" width="100" height="60" as="geometry" />
        </mxCell>
        <mxCell id="l0b-sQyUAo9crAttn33O-37" style="edgeStyle=orthogonalEdgeStyle;rounded=0;orthogonalLoop=1;jettySize=auto;html=1;exitX=1;exitY=0.5;exitDx=0;exitDy=0;exitPerimeter=0;entryX=0;entryY=0.5;entryDx=0;entryDy=0;fontSize=12;" edge="1" parent="1" source="l0b-sQyUAo9crAttn33O-35" target="l0b-sQyUAo9crAttn33O-36">
          <mxGeometry relative="1" as="geometry" />
        </mxCell>
        <mxCell id="l0b-sQyUAo9crAttn33O-38" value="Yes" style="edgeLabel;html=1;align=center;verticalAlign=middle;resizable=0;points=[];fontSize=12;" vertex="1" connectable="0" parent="l0b-sQyUAo9crAttn33O-37">
          <mxGeometry x="-0.4909" y="-1" relative="1" as="geometry">
            <mxPoint x="1" y="-1" as="offset" />
          </mxGeometry>
        </mxCell>
        <mxCell id="l0b-sQyUAo9crAttn33O-42" style="edgeStyle=orthogonalEdgeStyle;rounded=0;orthogonalLoop=1;jettySize=auto;html=1;exitX=0.5;exitY=1;exitDx=0;exitDy=0;exitPerimeter=0;entryX=0.5;entryY=1;entryDx=0;entryDy=0;fontSize=12;" edge="1" parent="1" source="l0b-sQyUAo9crAttn33O-35" target="l0b-sQyUAo9crAttn33O-6">
          <mxGeometry relative="1" as="geometry">
            <Array as="points">
              <mxPoint x="955" y="660" />
              <mxPoint x="585" y="660" />
            </Array>
          </mxGeometry>
        </mxCell>
        <mxCell id="l0b-sQyUAo9crAttn33O-43" value="No" style="edgeLabel;html=1;align=center;verticalAlign=middle;resizable=0;points=[];fontSize=12;" vertex="1" connectable="0" parent="l0b-sQyUAo9crAttn33O-42">
          <mxGeometry x="-0.874" y="-1" relative="1" as="geometry">
            <mxPoint x="1" y="-16" as="offset" />
          </mxGeometry>
        </mxCell>
        <mxCell id="l0b-sQyUAo9crAttn33O-35" value="Save new details?" style="strokeWidth=2;html=1;shape=mxgraph.flowchart.decision;whiteSpace=wrap;fontSize=12;" vertex="1" parent="1">
          <mxGeometry x="905" y="500" width="100" height="100" as="geometry" />
        </mxCell>
        <mxCell id="l0b-sQyUAo9crAttn33O-39" style="edgeStyle=orthogonalEdgeStyle;rounded=0;orthogonalLoop=1;jettySize=auto;html=1;exitX=0.5;exitY=0;exitDx=0;exitDy=0;entryX=1;entryY=0.5;entryDx=0;entryDy=0;fontSize=12;" edge="1" parent="1" source="l0b-sQyUAo9crAttn33O-36" target="l0b-sQyUAo9crAttn33O-3">
          <mxGeometry relative="1" as="geometry">
            <Array as="points">
              <mxPoint x="1090" y="140" />
            </Array>
          </mxGeometry>
        </mxCell>
        <mxCell id="l0b-sQyUAo9crAttn33O-36" value="Record &lt;br&gt;updated on &lt;br&gt;server" style="shape=parallelogram;html=1;strokeWidth=2;perimeter=parallelogramPerimeter;whiteSpace=wrap;rounded=1;arcSize=12;size=0.23;fontSize=12;" vertex="1" parent="1">
          <mxGeometry x="1040" y="520" width="100" height="60" as="geometry" />
        </mxCell>
        <mxCell id="l0b-sQyUAo9crAttn33O-46" style="edgeStyle=orthogonalEdgeStyle;rounded=0;orthogonalLoop=1;jettySize=auto;html=1;exitX=0;exitY=0.5;exitDx=0;exitDy=0;entryX=0.5;entryY=1;entryDx=0;entryDy=0;fontSize=12;" edge="1" parent="1" source="l0b-sQyUAo9crAttn33O-44" target="l0b-sQyUAo9crAttn33O-6">
          <mxGeometry relative="1" as="geometry" />
        </mxCell>
        <mxCell id="l0b-sQyUAo9crAttn33O-44" value="Popup with viewable information about the plant" style="rounded=1;whiteSpace=wrap;html=1;absoluteArcSize=1;arcSize=14;strokeWidth=2;fontSize=12;" vertex="1" parent="1">
          <mxGeometry x="670" y="500" width="100" height="100" as="geometry" />
        </mxCell>
      </root>
    </mxGraphModel>
  </diagram>
</mxfile>
